# xmcd
#
# Track frame offsets: 
#        150
#        36565
#        61755
#        76195
#        94152
#        112802
#        129035
#        148700
#
# Disc length: 2233 seconds
#
# Revision: 2
# Processed by: cddbd v1.5.2PL0 Copyright (c) Steve Scherf et al.
# Submitted via: ExactAudioCopyFreeDBPlugin 1.0
#
DISCID=5e08b708
DTITLE=Chico Hamilton - The Master
DYEAR=1997
DGENRE=Jazz
TTITLE0=One Day Five Months Ago
TTITLE1=Feels Good
TTITLE2=Fancy
TTITLE3=Stu
TTITLE4=Gengis
TTITLE5=Conquistadores '74
TTITLE6=Stacy
TTITLE7=I Can Hear the Grass Grow
EXTD=YEAR: 1997
EXTT0=
EXTT1=
EXTT2=
EXTT3=
EXTT4=
EXTT5=
EXTT6=
EXTT7=
PLAYORDER=
